<?xml version="1.0" standalone="no"?>
<!DOCTYPE svg PUBLIC "-//W3C//DTD SVG 20010904//EN"
 "http://www.w3.org/TR/2001/REC-SVG-20010904/DTD/svg10.dtd">
<svg version="1.0" xmlns="http://www.w3.org/2000/svg"
 width="150.000000pt" height="150.000000pt" viewBox="0 0 150.000000 150.000000"
 preserveAspectRatio="xMidYMid meet">
<metadata>
Created by potrace 1.11, written by Peter Selinger 2001-2013
</metadata>
<g transform="translate(0.000000,150.000000) scale(0.100000,-0.100000)"
fill="#000000" stroke="none">
<path d="M1021 1393 c-7 -7 -16 -11 -21 -8 -5 3 -29 -7 -52 -22 -24 -15 -46
-26 -50 -25 -5 1 -8 -5 -8 -13 0 -8 -4 -15 -10 -15 -15 0 -50 -33 -44 -42 3
-4 0 -9 -5 -9 -6 -1 -16 -2 -21 -3 -6 0 -15 -8 -20 -16 -5 -8 -15 -15 -22 -15
-7 -1 -12 -6 -11 -13 3 -11 -10 -16 -29 -13 -5 0 -8 -5 -8 -13 0 -7 -9 -16
-21 -19 -12 -3 -18 -10 -14 -17 3 -6 2 -9 -3 -8 -5 2 -24 -9 -41 -24 -17 -16
-35 -28 -41 -28 -5 0 -10 -7 -10 -15 0 -8 -7 -15 -15 -15 -8 0 -14 -6 -13 -12
2 -8 -7 -13 -19 -12 -13 0 -23 -5 -23 -13 0 -7 -7 -13 -17 -13 -9 0 -13 -3
-10 -6 4 -4 -17 -25 -46 -46 -28 -22 -51 -44 -49 -49 1 -5 -7 -9 -18 -9 -11 0
-20 -7 -20 -15 0 -8 -3 -14 -8 -12 -4 1 -21 -12 -37 -30 -46 -49 -65 -73 -58
-73 4 0 -2 -7 -13 -16 -10 -8 -12 -12 -4 -8 12 6 13 4 3 -6 -10 -11 -8 -20 13
-47 14 -18 22 -33 18 -33 -4 0 3 -8 14 -19 12 -10 19 -21 15 -25 -3 -3 1 -6
10 -6 10 0 17 -7 17 -16 0 -10 6 -14 14 -11 8 3 16 -2 19 -15 3 -11 10 -17 16
-13 6 3 11 -1 11 -9 0 -9 6 -16 14 -16 8 0 28 -13 45 -29 16 -15 33 -26 36
-23 3 3 5 -2 5 -11 0 -10 8 -17 20 -17 11 0 19 -5 17 -12 -1 -7 5 -13 13 -13
8 0 14 -6 13 -13 -3 -11 10 -16 30 -13 6 1 11 -14 9 -30 -1 -4 6 -6 16 -5 9 0
16 -5 15 -11 -2 -7 4 -13 12 -13 9 0 18 -7 21 -15 4 -8 12 -15 20 -15 8 0 14
-7 14 -16 0 -8 4 -13 9 -10 5 3 14 -1 21 -9 7 -8 16 -12 21 -9 8 5 13 -9 10
-28 0 -5 8 -8 19 -8 11 0 20 -7 20 -16 0 -8 4 -13 10 -9 10 6 50 -29 50 -45 0
-5 3 -9 8 -8 11 4 72 -26 72 -35 0 -5 5 -5 10 -2 6 3 10 2 10 -3 0 -5 9 -12
20 -15 11 -3 20 0 20 6 0 8 3 8 8 2 4 -5 13 -11 21 -13 19 -4 71 18 71 30 0 5
4 7 8 4 23 -14 124 89 105 108 -3 3 -1 6 6 6 7 0 9 5 4 13 -4 6 -6 22 -4 35 1
12 -2 22 -7 22 -5 0 -13 12 -16 26 -4 15 -9 24 -12 21 -3 -3 -18 8 -33 24 -15
16 -31 26 -35 22 -4 -4 -9 3 -13 15 -3 12 -9 20 -13 17 -4 -2 -20 9 -36 25
-16 16 -33 30 -37 30 -4 0 -20 12 -35 27 -16 16 -34 29 -40 30 -18 4 -51 40
-44 48 4 4 2 6 -3 5 -24 -5 -45 1 -43 13 2 7 -5 11 -16 9 -14 -3 -18 1 -14 16
4 15 1 18 -12 15 -10 -3 -20 2 -23 11 -4 9 -13 16 -21 16 -9 0 -13 11 -13 35
1 19 6 35 13 35 6 0 18 9 25 20 8 10 20 20 28 22 7 2 35 24 62 49 26 26 50 45
53 42 2 -3 9 5 16 16 6 12 16 18 22 15 6 -4 8 -3 5 3 -7 11 16 37 25 28 3 -3
21 11 41 30 20 19 40 35 45 35 5 0 19 14 32 30 13 17 29 30 36 30 7 0 19 8 26
19 7 10 18 20 23 22 5 2 9 7 8 12 -2 4 4 7 13 7 10 0 14 6 10 15 -3 8 -1 15 4
15 6 0 10 7 10 15 0 8 4 15 9 15 7 0 8 80 1 88 -1 1 -3 6 -4 10 -2 13 -59 67
-68 65 -4 -2 -8 2 -8 7 0 5 -6 10 -14 10 -8 0 -16 6 -19 14 -4 9 -17 12 -36
10 -17 -2 -31 1 -31 6 0 13 -34 8 -49 -7z"/>
</g>
</svg>
